<svg width="152" height="70" viewBox="0 0 152 70" fill="none" xmlns="http://www.w3.org/2000/svg">
<path fill-rule="evenodd" clip-rule="evenodd" d="M0 42.3978H6.6015L24.5652 24.489L0 0H16.2669C24.4574 8.1649 32.645 16.3238 40.834 24.4873C32.886 32.4114 24.9499 40.1454 17.0728 47.9975L19.9916 46.1112L43.954 70H27.8475C19.6579 61.8359 8.1304 50.504 0 42.3978Z" fill="#055556"/>
<path fill-rule="evenodd" clip-rule="evenodd" d="M92.5001 42.6615L96.6611 38.5134L97.5872 39.4321L100.821 42.6615H98.8411L96.6601 40.4879L94.4801 42.6615H92.5001ZM89.4452 53.1674L90.4481 54.1939C89.7121 54.9429 89.0611 55.456 88.4941 55.7347C87.9271 56.0133 87.2451 56.1528 86.4461 56.1528C85.0561 56.1528 83.8821 55.5795 82.9241 54.4333C81.9651 53.2865 81.4861 51.8692 81.4861 50.1811C81.4861 48.4137 81.9931 46.9369 83.0081 45.7506C84.0221 44.564 85.2881 43.971 86.8051 43.971C87.5241 43.971 88.1351 44.0982 88.6381 44.3531C89.1421 44.6079 89.7521 45.1175 90.4711 45.8819L89.3491 46.8611C88.5231 45.9217 87.6922 45.4519 86.8652 45.4519C85.8951 45.4519 85.0841 45.8898 84.4291 46.7695C83.7781 47.6452 83.4511 48.7563 83.4511 50.0978C83.4511 51.4555 83.7581 52.5578 84.3701 53.4021C84.9841 54.2497 85.7831 54.6718 86.7691 54.6718C87.2481 54.6718 87.6841 54.5606 88.0831 54.3374C88.4831 54.1146 88.9342 53.7244 89.4452 53.1674ZM93.4902 47.0281L92.7711 45.8819C93.9171 45.1175 94.7961 44.6079 95.4111 44.3531C96.0221 44.0982 96.6571 43.971 97.3081 43.971C98.3621 43.971 99.1251 44.2578 99.6041 44.831C100.079 45.4043 100.318 46.3198 100.318 47.5778V48.5332L100.199 52.785C100.199 54.1067 100.455 54.7674 100.965 54.7674C101.109 54.7674 101.225 54.7477 101.313 54.7079C101.401 54.6681 101.596 54.5364 101.9 54.3136L102.403 55.2927C101.86 55.6115 101.465 55.8183 101.217 55.9139C100.969 56.0095 100.694 56.0572 100.39 56.0572C99.2561 56.0572 98.6901 55.4758 98.6901 54.3136V54.1465C98.1311 54.8389 97.5632 55.3369 96.9882 55.6431C96.4132 55.9497 95.7501 56.1051 95.0001 56.1051C94.1051 56.1051 93.3541 55.7942 92.7471 55.1774C92.1411 54.5562 91.8372 53.772 91.8372 52.8208C91.8372 51.5827 92.4242 50.5754 93.5982 49.8072C94.7722 49.0387 96.4212 48.6526 98.5462 48.6526V47.9599C98.5462 47.0682 98.4221 46.4348 98.1741 46.0609C97.9271 45.6867 97.4991 45.4998 96.8921 45.4998C96.4291 45.4998 95.9461 45.6111 95.4431 45.834C94.9401 46.0571 94.2892 46.4549 93.4902 47.0281ZM98.5462 53.0555V49.775C97.7592 49.9185 97.1042 50.0498 96.5852 50.1695C96.0622 50.2846 95.4511 50.4917 94.7521 50.7866C94.0531 51.0769 93.7061 51.726 93.7061 52.7214C93.7061 53.2944 93.8811 53.7601 94.2371 54.1268C94.5881 54.4888 95.0561 54.6718 95.6311 54.6718C96.1301 54.6718 96.5811 54.5606 96.9801 54.3374C97.3841 54.1186 97.9031 53.6886 98.5462 53.0555ZM104.128 55.7942L104.176 44.3289H106.045L105.877 46.216C107.059 44.7354 108.401 43.9948 109.903 43.9948C110.669 43.9948 111.292 44.186 111.771 44.5681C112.25 44.9501 112.562 45.4998 112.706 46.216C113.405 45.4359 114.083 44.8708 114.743 44.5201C115.402 44.17 116.108 43.9948 116.871 43.9948C118.983 43.9948 120.038 45.3087 120.038 47.9358V55.7942H118.121L118.168 47.9157C118.168 47.2155 118.009 46.658 117.686 46.2399C117.362 45.8261 116.919 45.619 116.356 45.619C115.274 45.619 114.156 46.248 112.994 47.5101V55.7942H111.1L111.148 48.1031C111.148 46.447 110.529 45.619 109.295 45.619C108.748 45.619 108.233 45.7584 107.742 46.0371C107.255 46.3157 106.672 46.8134 105.997 47.5302V55.7942H104.128ZM123.44 55.7942L123.523 38.5131L125.368 38.5168L125.309 45.9534C126.159 44.6317 127.293 43.971 128.723 43.971C130.117 43.971 131.259 44.5126 132.157 45.5911C133.056 46.6742 133.503 48.0636 133.503 49.7633C133.503 51.5586 133.02 53.0637 132.053 54.2816C131.087 55.4958 129.885 56.1051 128.447 56.1051C127.825 56.1051 127.257 55.9773 126.746 55.7268C126.235 55.4758 125.724 55.0699 125.213 54.5045L125.309 55.7942H123.44ZM125.309 47.717V52.6694C126.091 53.971 127.018 54.6242 128.088 54.6242C129.078 54.6242 129.901 54.1703 130.556 53.2665C131.211 52.3591 131.538 51.232 131.538 49.8825C131.538 48.5968 131.251 47.554 130.676 46.7495C130.101 45.9496 129.35 45.5475 128.424 45.5475C127.273 45.5475 126.235 46.2718 125.309 47.717ZM136.258 55.7942L136.306 44.3289H138.271L138.223 55.7942H136.258ZM136.306 41.7971V39.6953H138.295V41.7971H136.306ZM146.705 43.971C148.286 43.971 149.564 44.5201 150.538 45.6149C151.513 46.7135 152 48.1589 152 49.9545C152 51.7972 151.481 53.2824 150.443 54.4132C149.405 55.5394 148.03 56.1051 146.321 56.1051C144.74 56.1051 143.462 55.5478 142.488 54.4371C141.513 53.3222 141.026 51.8532 141.026 50.026C141.026 48.2304 141.55 46.7733 142.596 45.6509C143.642 44.5323 145.012 43.971 146.705 43.971ZM146.585 45.4043C145.515 45.4043 144.648 45.8378 143.985 46.7021C143.322 47.5697 142.991 48.6845 142.991 50.0498C142.991 51.4314 143.306 52.5381 143.937 53.374C144.569 54.2061 145.411 54.6242 146.465 54.6242C147.52 54.6242 148.378 54.1823 149.041 53.3025C149.704 52.4184 150.035 51.2719 150.035 49.8586C150.035 48.5413 149.716 47.4703 149.077 46.6423C148.438 45.8183 147.608 45.4043 146.585 45.4043ZM52.4731 55.6074L52.5451 39.6994L54.7731 39.6517H56.0181H56.6181C57.8631 39.6517 58.7781 39.7072 59.3611 39.8185C59.9441 39.9303 60.5311 40.1689 61.1221 40.5312C61.7131 40.8976 62.1891 41.4232 62.5481 42.1156C62.9071 42.8044 63.0872 43.5726 63.0872 44.4132C63.0872 45.4441 62.7831 46.3395 62.1761 47.1002C61.5691 47.8646 60.7791 48.3222 59.8041 48.4817C60.1241 48.6883 60.4241 48.9318 60.7031 49.2098C60.9831 49.4888 61.2661 49.8429 61.5541 50.273L64.1881 53.9739L62.0661 56.0888L61.9611 56.1528L59.0861 51.9253L57.6961 50.0658C57.3601 49.6675 57.1171 49.4289 56.9651 49.349C56.8131 49.2697 56.5061 49.2296 56.0431 49.2296H55.5151L55.4911 55.6074H52.4731ZM55.4911 46.8172H56.4381C57.1131 46.8172 57.6121 46.7934 57.9241 46.746C58.2391 46.6978 58.5591 46.5906 58.8821 46.4154C59.6571 46.053 60.0442 45.3926 60.0442 44.4289C60.0442 43.5927 59.7651 42.9918 59.2091 42.6211C58.6501 42.2512 57.7441 42.0641 56.4861 42.0641H55.4911V46.8172ZM72.5742 52.0482L65.9961 52.0366L64.8482 50.4795L72.3352 39.9138H75.3551L75.3061 49.684H76.8641V52.0482H75.3061V55.6074H72.5751V52.2327L73.3871 52.0473H72.5742V52.0482ZM72.5751 49.684V45.5039C72.5751 45.1695 72.5991 44.648 72.6471 43.9393C72.6951 43.2301 72.7191 42.8364 72.7191 42.7565C72.3671 43.4576 72.0682 44.0146 71.8202 44.4289C71.5722 44.8429 71.3011 45.2569 71.0131 45.671L68.1981 49.6875L72.5751 49.684Z" fill="#055556"/>
</svg>
