<svg width="48" height="48" viewBox="0 0 48 48" fill="none" xmlns="http://www.w3.org/2000/svg">
<path d="M17.2442 37.7442C16.4498 37.7408 15.6892 37.4226 15.1292 36.8592L6.87917 28.6092C6.31625 28.0462 6 27.2828 6 26.4867C6 25.6906 6.31625 24.9271 6.87917 24.3642C7.44209 23.8012 8.20558 23.485 9.00167 23.485C9.79776 23.485 10.5612 23.8012 11.1242 24.3642L17.2592 30.4992L36.8792 10.8792C37.4421 10.3162 38.2056 10 39.0017 10C39.7978 10 40.5612 10.3162 41.1242 10.8792C41.6871 11.4421 42.0033 12.2056 42.0033 13.0017C42.0033 13.7978 41.6871 14.5612 41.1242 15.1242L19.3742 36.8742C19.0938 37.1522 18.7614 37.3722 18.3959 37.5215C18.0304 37.6708 17.639 37.7465 17.2442 37.7442Z" fill="#055556"/>
</svg>
