<svg width="85" height="90" viewBox="0 0 85 90" fill="none" xmlns="http://www.w3.org/2000/svg">
<path d="M9.27755 0H74.737C75.97 0 76.9691 1.00169 76.9691 2.2361V75.1202H81.7824C83.015 75.1202 84.0151 76.1218 84.0151 77.3568V87.1448C84.0151 88.3792 83.015 89.3809 81.7824 89.3809H2.23213C0.99905 89.3809 0 88.3792 0 87.1448V77.3568C0 76.1218 0.99905 75.1202 2.23213 75.1202H7.04548V2.2361C7.04548 1.00169 8.04559 0 9.27755 0ZM20.586 32.0559H30.3589V41.8449H20.586V32.0559ZM53.6556 32.0559H63.4297V41.8449H53.6556V32.0559ZM37.1208 32.0559H46.8937V41.8449H37.1208V32.0559ZM20.586 15.8932H30.3589V25.6822H20.586V15.8932ZM53.6556 15.8932H63.4297V25.6822H53.6556V15.8932ZM37.1208 15.8932H46.8937V25.6822H37.1208V15.8932ZM45.5706 75.1202V59.1045H38.4439V75.1202H45.5706ZM33.9792 75.1202V56.8684C33.9792 55.6345 34.9788 54.6329 36.2119 54.6329H47.8038C49.0352 54.6329 50.0353 55.6345 50.0353 56.8684V75.1202H72.5043V4.47161H11.5102V75.1202H33.9792ZM4.46366 79.5918V84.9092H79.5503V79.5918C54.5218 79.5918 29.4927 79.5918 4.46366 79.5918Z" fill="white"/>
</svg>
