<svg width="64" height="92" viewBox="0 0 64 92" fill="none" xmlns="http://www.w3.org/2000/svg">
<path d="M56.2684 60.2293L39.0937 54.6925V51.8411C46.3004 51.2793 51.2399 45.286 51.2399 36.8783V16.0886C51.2327 7.7612 44.4913 1.01002 36.1756 1H27.8809C19.5662 1.01002 12.8249 7.7612 12.8177 16.0886V36.8795C12.8177 45.1551 17.9974 51.2704 25.2874 51.8411V54.6925L8.12664 60.2343C3.88258 61.5895 1.00111 65.5428 1.00111 70.0044C1.00111 70.0128 1.00111 70.0227 1.00111 70.0317V89.1059C1 89.122 1 89.1376 1 89.1537C1 89.7779 1.50481 90.2824 2.12635 90.2824C2.74845 90.2824 3.25325 89.7779 3.25325 89.1537C3.25325 89.1376 3.25213 89.122 3.25213 89.1059V70.0317C3.25213 70.0255 3.25213 70.0167 3.25213 70.0094C3.25213 66.5244 5.5037 63.4381 8.81712 62.3774L25.1746 57.1006C25.1412 58.8985 25.3959 61.7532 27.0692 63.7092C27.34 64.0261 27.6457 64.3156 27.9782 64.5684L25.7928 86.0179C25.7889 86.0586 25.7861 86.0992 25.7861 86.1398C25.7861 86.4828 25.9429 86.8086 26.2114 87.0207L31.3344 91.0195C31.5312 91.1738 31.7753 91.2579 32.0266 91.2579C32.2762 91.2579 32.5202 91.1738 32.7171 91.0195L37.8406 87.0207C38.1086 86.8058 38.2637 86.4816 38.2637 86.1375C38.2637 86.098 38.2626 86.0575 38.2576 86.0179L36.0905 64.5684C36.4246 64.3173 36.7321 64.0283 37.0045 63.7132C38.7123 61.7176 38.9397 58.7888 38.8858 56.9971L55.5713 62.3785C58.8874 63.4403 61.1379 66.5283 61.1379 70.0155C61.1379 70.0216 61.1379 70.0289 61.1379 70.0361V89.1109C61.1368 89.1253 61.1368 89.1426 61.1368 89.1587C61.1368 89.7812 61.6416 90.2874 62.2637 90.2874C62.8852 90.2874 63.39 89.7812 63.39 89.1587C63.39 89.1426 63.39 89.1254 63.3889 89.1092V70.0317C63.3889 70.0239 63.3889 70.0155 63.3889 70.0077C63.3889 65.5456 60.5102 61.5929 56.2684 60.2293ZM27.8809 3.25394H36.1845C43.2577 3.26173 48.9928 9.00452 48.9989 16.0886V23.1744L43.2738 15.7178C43.062 15.4416 42.7323 15.2785 42.3826 15.2785C42.2653 15.2785 42.1475 15.2969 42.0363 15.3331C38.8152 16.386 32.93 17.1699 29.5393 17.1699C28.3373 17.1699 21.84 17.2679 19.1498 15.3169C18.4677 14.8225 17.835 15.0875 17.4359 16.0803L15.0398 22.0291C15.0398 21.8253 15.0831 15.6833 15.0915 15.4823C15.4145 8.68606 21.0156 3.26786 27.8809 3.25394ZM35.8726 85.3548L31.9326 88.4299L27.9927 85.3548L30.1341 65.5957C30.7557 65.7427 31.3945 65.8178 32.0338 65.8178C32.6726 65.8178 33.8706 64.9631 33.9334 65.5957L35.8726 85.3548ZM35.2866 62.2466C35.0492 62.5227 34.7707 62.761 34.4633 62.952C34.3893 62.9854 34.3187 63.026 34.2537 63.0739C33.5582 63.3896 32.8021 63.5528 32.0388 63.5528C31.2755 63.5528 30.5183 63.3896 29.8239 63.0739C29.7572 63.0272 29.6872 62.9876 29.6143 62.957C29.2991 62.766 29.0161 62.5238 28.7782 62.2454C27.44 60.6914 27.3622 58.1084 27.4312 56.7187H36.6275C36.6965 58.1107 36.6214 60.6942 35.2866 62.2466ZM27.5496 54.9096L27.5863 50.5393C13.7411 50.2704 15.0292 39.3188 15.0292 28.8209L15.0398 26.8716L18.868 17.8632C24.1478 20.4712 42.8024 17.9311 42.7257 17.8214L48.9989 26.8716V36.8856C48.9989 43.2341 45.5921 49.639 37.9785 49.639C37.3575 49.639 36.8538 50.1434 36.8538 50.7659V54.4753L27.5496 54.9096Z" fill="white" stroke="white" stroke-width="0.0846999" stroke-miterlimit="22.9256"/>
<path d="M51.9332 74.5431H44.0038C43.4011 74.5693 42.9258 75.0665 42.9258 75.6706C42.9258 76.2741 43.4011 76.7713 44.0038 76.7975H51.9332C52.5358 76.7713 53.0117 76.2741 53.0117 75.6706C53.0117 75.0665 52.5358 74.5693 51.9337 74.5431H51.9332Z" fill="white" stroke="white" stroke-width="0.0846999" stroke-miterlimit="22.9256"/>
<path d="M26.1357 29.2767V25.5818C26.1096 24.9782 25.6137 24.5021 25.0105 24.5021C24.4073 24.5021 23.9108 24.9782 23.8853 25.5818V29.2767C23.9108 29.8802 24.4073 30.3563 25.0105 30.3563C25.6137 30.3563 26.1096 29.8802 26.1357 29.2767Z" fill="white" stroke="white" stroke-width="0.0846999" stroke-miterlimit="22.9256"/>
<path d="M37.7164 30.4025C38.3374 30.4025 38.8411 29.898 38.8411 29.2766V25.5818C38.8411 24.9599 38.3374 24.4559 37.7164 24.4559C37.096 24.4559 36.5923 24.9599 36.5923 25.5818V29.2766C36.5923 29.898 37.096 30.4025 37.7164 30.4025Z" fill="white" stroke="white" stroke-width="0.0846999" stroke-miterlimit="22.9256"/>
<path d="M38.0658 40.3126C38.153 40.1495 38.1986 39.9668 38.1986 39.782C38.1986 39.1595 37.6944 38.6545 37.0729 38.6545C36.6576 38.6545 36.2756 38.8839 36.0805 39.2508C36.0677 39.2742 34.9497 41.3109 31.7414 41.3109C28.6064 41.3109 27.4445 39.3265 27.4022 39.2508C27.2071 38.8839 26.8252 38.6545 26.4099 38.6545C25.7883 38.6545 25.2847 39.1595 25.2847 39.782C25.2847 39.9668 25.3302 40.1495 25.417 40.3126C25.4881 40.444 27.1976 43.5631 31.7414 43.5631C36.2851 43.5631 37.9946 40.444 38.0658 40.3126Z" fill="white" stroke="white" stroke-width="0.0846999" stroke-miterlimit="22.9256"/>
</svg>
