<svg width="71" height="89" viewBox="0 0 71 89" fill="none" xmlns="http://www.w3.org/2000/svg">
<path d="M30.201 52.8463C29.6298 52.8463 29.0585 52.6566 28.5634 52.2772C27.7637 51.6701 27.3828 50.6457 27.5732 49.6592L29.9725 37.7075C30.0487 37.2902 30.2391 36.9487 30.4676 36.6072L56.5172 3.06672C59.1451 -0.348043 64.4388 -1.03099 67.8663 1.62493C71.3701 4.35674 72.0556 9.40299 69.3135 12.9316L43.2639 46.4721C42.9973 46.8136 42.6927 47.0412 42.3118 47.2309L31.3436 52.5807C30.9627 52.7704 30.5819 52.8463 30.163 52.8463H30.201ZM35.1139 39.377L33.8952 45.4097L39.4555 42.7159L65.1243 9.66858C66.0383 8.49239 65.8098 6.74707 64.6292 5.83646C63.4867 4.92586 61.6586 5.19145 60.7827 6.32971L35.1139 39.377Z" fill="#C3A36F"/>
<path d="M57.7738 88.0948H2.6659C1.18061 88.0948 0 86.9186 0 85.4388V14.943C0 13.4633 1.18061 12.2871 2.6659 12.2871H36.3704C37.8557 12.2871 39.0363 13.4633 39.0363 14.943C39.0363 16.4228 37.8557 17.599 36.3704 17.599H5.36988V82.7829H55.146V36.2663C55.146 34.7866 56.3266 33.6104 57.8119 33.6104C59.2971 33.6104 60.4778 34.7866 60.4778 36.2663V85.4388C60.4778 86.9186 59.2971 88.0948 57.8119 88.0948H57.7738Z" fill="#C3A36F"/>
</svg>
