<svg width="88" height="88" viewBox="0 0 88 88" fill="none" xmlns="http://www.w3.org/2000/svg">
<g clip-path="url(#clip0)">
<path d="M25.9096 70.5519C25.6804 70.5519 25.4511 70.5289 25.1989 70.4368C10.1121 65.718 -0.0220947 51.9069 -0.0220947 36.0241C-0.0220947 16.159 16.0735 0 35.8605 0C55.6474 0 71.743 16.159 71.743 36.0241C71.743 39.1086 71.3532 42.147 70.5966 45.1164C70.2756 46.3824 68.9687 47.142 67.7306 46.8198C66.4695 46.4975 65.7129 45.2085 66.0339 43.9425C66.6988 41.3874 67.0427 38.7172 67.0427 36.0471C67.0427 18.7832 53.0566 4.76484 35.8834 4.76484C18.6873 4.76484 4.72403 18.8062 4.72403 36.0471C4.72403 49.8352 13.5284 61.8509 26.6204 65.9252C27.8585 66.3165 28.5693 67.6516 28.1795 68.8946C27.8585 69.9074 26.9414 70.5519 25.9326 70.5519H25.9096Z" fill="#C3A36F"/>
<path d="M35.8835 53.0121C35.2415 53.0121 34.7141 52.4826 34.7141 51.8381V2.37121C34.7141 1.72669 35.2415 1.19727 35.8835 1.19727C36.5255 1.19727 37.0528 1.72669 37.0528 2.37121V51.8381C37.0528 52.4826 36.5255 53.0121 35.8835 53.0121Z" fill="#C3A36F"/>
<path d="M24.2818 68.1816C23.8691 68.1816 23.4564 67.9514 23.25 67.5601C6.19148 35.4031 23.0895 4.76542 23.2729 4.46618C23.5939 3.89071 24.3276 3.70656 24.8779 4.02882C25.4511 4.35108 25.6345 5.06466 25.3135 5.64012C25.1531 5.93937 8.897 35.4722 25.3365 66.4552C25.6345 67.0307 25.4282 67.7442 24.855 68.0665C24.6716 68.1586 24.4881 68.2046 24.3047 68.2046L24.2818 68.1816Z" fill="#C3A36F"/>
<path d="M54.9137 34.343C54.2946 34.343 53.7673 33.8596 53.7443 33.2151C52.896 17.1942 46.522 5.75392 46.4532 5.63883C46.1322 5.06336 46.3386 4.34979 46.8888 4.02753C47.462 3.70527 48.1728 3.91244 48.4938 4.46488C48.7689 4.94827 55.2117 16.5266 56.083 33.077C56.1289 33.7215 55.6244 34.2969 54.9595 34.32C54.9366 34.32 54.9137 34.32 54.8908 34.32L54.9137 34.343Z" fill="#C3A36F"/>
<path d="M5.045 25.6433C4.63229 25.6433 4.21958 25.4131 4.01323 25.0218C3.71516 24.4463 3.92152 23.7327 4.49472 23.4105C36.5253 6.28464 67.0427 23.2493 67.3408 23.4335C67.914 23.7557 68.0974 24.4693 67.7764 25.0448C67.4554 25.6202 66.7446 25.8044 66.1714 25.4821C65.8734 25.321 36.4566 8.97782 5.59527 25.5051C5.41185 25.5972 5.22842 25.6433 5.045 25.6433Z" fill="#C3A36F"/>
<path d="M33.5447 56.464H33.5218C23.3187 56.2108 13.5514 53.6327 4.49474 48.7758C3.92153 48.4765 3.69225 47.7399 4.01325 47.1645C4.31131 46.589 5.04501 46.3819 5.61822 46.6811C14.3538 51.3539 23.7773 53.8399 33.5905 54.0931C34.2325 54.1161 34.7599 54.6455 34.737 55.3131C34.714 55.9576 34.1867 56.464 33.5676 56.464H33.5447Z" fill="#C3A36F"/>
<path d="M32.3754 85.2603C31.6647 85.2603 30.9997 84.823 30.7246 84.1324L23.9149 66.4772C23.571 65.5564 24.0067 64.5206 24.9238 64.1753C25.8409 63.83 26.8727 64.2674 27.2166 65.1881L34.0263 82.8434C34.3702 83.7641 33.9345 84.7999 33.0174 85.1452C32.8111 85.2373 32.5818 85.2603 32.3754 85.2603Z" fill="#C3A36F"/>
<path d="M39.3684 84.801C38.3825 84.801 37.603 83.9954 37.603 83.0286C37.603 82.246 36.9839 81.6245 36.2044 81.6245C35.4248 81.6245 34.8057 82.246 34.8057 83.0286C34.8057 84.0184 34.0033 84.801 33.0403 84.801C32.0544 84.801 31.2748 83.9954 31.2748 83.0286C31.2748 80.2894 33.4988 78.0796 36.2273 78.0796C38.9557 78.0796 41.1798 80.3124 41.1798 83.0286C41.1798 84.0184 40.3773 84.801 39.4143 84.801H39.3684Z" fill="#C3A36F"/>
<path d="M42.5555 87.9992C39.8271 87.9992 37.626 85.7665 37.626 83.0503C37.626 82.0605 38.4285 81.2778 39.3914 81.2778C40.3774 81.2778 41.1569 82.0835 41.1569 83.0503C41.1569 83.8329 41.776 84.4544 42.5555 84.4544C43.3351 84.4544 43.9541 83.8329 43.9541 83.0503C43.9541 82.0605 44.7566 81.2778 45.7196 81.2778C46.7055 81.2778 47.4851 82.0835 47.4851 83.0503C47.4851 85.7895 45.261 87.9992 42.5326 87.9992H42.5555Z" fill="#C3A36F"/>
<path d="M52.0706 84.801C51.0846 84.801 50.3051 83.9954 50.3051 83.0286C50.3051 82.246 49.686 81.6245 48.9065 81.6245C48.1269 81.6245 47.5079 82.246 47.5079 83.0286C47.5079 84.0184 46.7054 84.801 45.7424 84.801C44.7565 84.801 43.9769 83.9954 43.9769 83.0286C43.9769 80.2894 46.201 78.0796 48.9065 78.0796C51.6349 78.0796 53.859 80.3124 53.859 83.0286C53.859 84.0184 53.0565 84.801 52.0935 84.801H52.0706Z" fill="#C3A36F"/>
<path d="M67.914 87.9992C65.1856 87.9992 62.9615 85.7665 62.9615 83.0503C62.9615 82.0605 63.764 81.2778 64.727 81.2778C65.7129 81.2778 66.4925 82.0835 66.4925 83.0503C66.4925 83.8329 67.1115 84.4544 67.8911 84.4544C68.6706 84.4544 69.2897 83.8329 69.2897 83.0503C69.2897 82.0605 70.0922 81.2778 71.0552 81.2778C72.0411 81.2778 72.8206 82.0835 72.8206 83.0503C72.8206 85.7895 70.5966 87.9992 67.8681 87.9992H67.914Z" fill="#C3A36F"/>
<path d="M29.8532 87.9992C27.1248 87.9992 24.9007 85.7665 24.9007 83.0503C24.9007 82.0605 25.7032 81.2778 26.6662 81.2778C27.6521 81.2778 28.4317 82.0835 28.4317 83.0503C28.4317 83.8329 29.0507 84.4544 29.8303 84.4544C30.6098 84.4544 31.2289 83.8329 31.2289 83.0503C31.2289 82.0605 32.0314 81.2778 32.9944 81.2778C33.9803 81.2778 34.7598 82.0835 34.7598 83.0503C34.7598 85.7895 32.5358 87.9992 29.8303 87.9992H29.8532Z" fill="#C3A36F"/>
<path d="M55.2347 87.9992C52.5062 87.9992 50.3051 85.7665 50.3051 83.0503C50.3051 82.0605 51.1076 81.2778 52.0706 81.2778C53.0565 81.2778 53.836 82.0835 53.836 83.0503C53.836 83.8329 54.4551 84.4544 55.2347 84.4544C56.0142 84.4544 56.6333 83.8329 56.6333 83.0503C56.6333 82.0605 57.4358 81.2778 58.3988 81.2778C59.3847 81.2778 60.1642 82.0835 60.1642 83.0503C60.1642 85.7895 57.9402 87.9992 55.2347 87.9992Z" fill="#C3A36F"/>
<path d="M64.7499 84.801C63.764 84.801 62.9844 83.9954 62.9844 83.0286C62.9844 82.246 62.3654 81.6245 61.5858 81.6245C60.8062 81.6245 60.1872 82.246 60.1872 83.0286C60.1872 84.0184 59.3847 84.801 58.4217 84.801C57.4358 84.801 56.6562 83.9954 56.6562 83.0286C56.6562 80.2894 58.8803 78.0796 61.5858 78.0796C64.3143 78.0796 66.5154 80.3124 66.5154 83.0286C66.5154 84.0184 65.7129 84.801 64.7499 84.801Z" fill="#C3A36F"/>
<path d="M77.4292 84.801C76.4433 84.801 75.6638 83.9954 75.6638 83.0286C75.6638 82.246 75.0447 81.6245 74.2652 81.6245C73.4856 81.6245 72.8665 82.246 72.8665 83.0286C72.8665 84.0184 72.0641 84.801 71.1011 84.801C70.1152 84.801 69.3356 83.9954 69.3356 83.0286C69.3356 80.2894 71.5596 78.0796 74.2652 78.0796C76.9936 78.0796 79.2176 80.3124 79.2176 83.0286C79.2176 84.0184 78.4151 84.801 77.4522 84.801H77.4292Z" fill="#C3A36F"/>
<path d="M80.6163 87.9992C77.8878 87.9992 75.6638 85.7665 75.6638 83.0503C75.6638 82.0605 76.4663 81.2778 77.4293 81.2778C78.4152 81.2778 79.1948 82.0835 79.1948 83.0503C79.1948 83.8329 79.8138 84.4544 80.5934 84.4544C81.3729 84.4544 81.992 83.8329 81.992 83.0503C81.992 82.0605 82.7945 81.2778 83.7575 81.2778C84.7434 81.2778 85.5229 82.0835 85.5229 83.0503C85.5229 85.7895 83.2989 87.9992 80.5704 87.9992H80.6163Z" fill="#C3A36F"/>
<path d="M79.1947 85.9057C78.9884 85.9057 78.7591 85.8597 78.5527 85.7906C77.6356 85.4454 77.1771 84.4095 77.5439 83.4888L84.5599 65.189C84.9038 64.2683 85.9356 63.8079 86.8527 64.1762C87.7699 64.5215 88.2284 65.5573 87.8616 66.4781L80.8456 84.7778C80.5704 85.4914 79.9055 85.9057 79.1947 85.9057Z" fill="#C3A36F"/>
<path d="M25.5658 67.606C24.7633 67.606 24.0296 67.0535 23.8462 66.2249C23.6169 65.2581 24.213 64.3143 25.176 64.0841L55.3494 57.1095C55.6016 57.0404 55.8768 57.0635 56.129 57.1095L86.6005 64.0841C87.5635 64.3143 88.1596 65.2581 87.9303 66.2018C87.724 67.1686 86.761 67.7671 85.798 67.5369L55.7163 60.6544L25.9326 67.5369C25.7951 67.5599 25.6575 67.583 25.5428 67.583L25.5658 67.606Z" fill="#C3A36F"/>
<path d="M76.1682 64.1071C75.1823 64.1071 74.4027 63.3015 74.4027 62.3347V55.0838L70.0235 47.1655H55.7392C54.7533 47.1655 53.9738 46.3598 53.9738 45.393C53.9738 44.4032 54.7762 43.6206 55.7392 43.6206H71.0552C71.6972 43.6206 72.2933 43.9659 72.6143 44.5413L77.7273 53.7718C77.8649 54.025 77.9566 54.3242 77.9566 54.6235V62.3347C77.9566 63.3245 77.1541 64.1071 76.1911 64.1071H76.1682Z" fill="#C3A36F"/>
<path d="M34.9203 64.1071C33.9344 64.1071 33.1548 63.3015 33.1548 62.3347V54.6235C33.1548 54.3242 33.2236 54.025 33.3841 53.7718L38.4971 44.5413C38.8181 43.9659 39.4142 43.6206 40.0562 43.6206H55.3722C56.3581 43.6206 57.1377 44.4263 57.1377 45.393C57.1377 46.3828 56.3352 47.1655 55.3722 47.1655H41.088L36.7087 55.0838V62.3347C36.7087 63.3245 35.9062 64.1071 34.9432 64.1071H34.9203Z" fill="#C3A36F"/>
<path d="M59.6598 41.7781H52.1165C51.1306 41.7781 50.351 40.9725 50.351 40.0057V33.7216C50.351 32.7318 51.1535 31.9492 52.1165 31.9492H59.6598C60.6458 31.9492 61.4253 32.7549 61.4253 33.7216V40.0057C61.4253 40.9955 60.6228 41.7781 59.6598 41.7781ZM53.8819 38.2333H57.8944V35.5171H53.8819V38.2333Z" fill="#C3A36F"/>
<path d="M34.9204 55.8205C34.3472 55.8205 33.8428 55.3831 33.7511 54.7846C33.6594 54.1401 34.1179 53.5416 34.7599 53.4495L55.1889 50.6413C55.3035 50.6183 55.3952 50.6183 55.5099 50.6413L76.3286 53.4495C76.9706 53.5416 77.4292 54.1401 77.3375 54.7846C77.2458 55.4291 76.6496 55.8895 76.0076 55.7974L55.3494 53.0122L35.0809 55.7974C35.035 55.7974 34.9663 55.7974 34.9204 55.7974V55.8205Z" fill="#C3A36F"/>
</g>
<defs>
<clipPath id="clip0">
<rect width="88" height="88" fill="white"/>
</clipPath>
</defs>
</svg>
