<svg width="106" height="73" viewBox="0 0 106 73" fill="none" xmlns="http://www.w3.org/2000/svg">
<g clip-path="url(#clip0)">
<path d="M56.9603 21.8497C57.7653 21.8497 58.4998 22.1734 59.0286 22.6936C59.5574 23.2139 59.8865 23.9364 59.8865 24.7283C59.8865 25.5202 59.5574 26.237 59.0286 26.763C58.4939 27.289 57.7653 27.6069 56.9603 27.6069C56.1553 27.6069 55.4267 27.2832 54.892 26.763C54.3632 26.2428 54.0342 25.526 54.0342 24.7283C54.0342 23.9364 54.3632 23.2139 54.892 22.6936C55.4209 22.1734 56.1495 21.8497 56.9603 21.8497ZM3.47876 0H102.527C103.485 0 104.355 0.387283 104.983 1.00578C105.612 1.62428 106.006 2.47977 106.006 3.42197V62.6821C106.006 63.6243 105.612 64.4798 104.983 65.0983C104.355 65.7168 103.485 66.104 102.527 66.104H92.3327V70.7803C92.3327 71.3931 92.08 71.9538 91.6687 72.3526C91.2515 72.7572 90.6874 73.0058 90.0705 73.0058H76.374C75.757 73.0058 75.1929 72.7572 74.7816 72.3526L74.7758 72.3468C74.3645 71.9422 74.1118 71.3873 74.1118 70.7803V66.104H31.9059V70.7803C31.9059 71.3931 31.6532 71.9538 31.2419 72.3526C30.8247 72.7572 30.2607 73.0058 29.6437 73.0058H15.9472C15.3303 73.0058 14.7662 72.7572 14.3549 72.3526L14.349 72.3468C13.9377 71.9422 13.685 71.3873 13.685 70.7803V66.104H3.49051C2.53275 66.104 1.66314 65.7168 1.03443 65.0983C0.405714 64.4798 0.0120354 63.6243 0.0120354 62.6821V3.42197C0.0120354 2.47977 0.405714 1.62428 1.03443 1.00578C1.66314 0.387283 2.53275 0 3.49051 0L3.47876 0ZM28.5626 66.0983H17.0166V69.7168H28.5626V66.0983ZM88.9952 66.0983H77.4492V69.7168H88.9952V66.0983ZM102.527 3.28902H3.47876C3.4435 3.28902 3.40825 3.30636 3.38475 3.32948C3.36124 3.3526 3.34362 3.38728 3.34362 3.42197V62.6821C3.34362 62.7168 3.36124 62.7514 3.38475 62.7746C3.40825 62.7977 3.4435 62.815 3.47876 62.815H15.9061H15.9355H29.632H29.6613H76.3328H76.3622H90.0587H90.0881H102.515C102.551 62.815 102.586 62.7977 102.609 62.7746C102.633 62.7514 102.651 62.7168 102.651 62.6821V3.42197C102.651 3.38728 102.633 3.3526 102.609 3.32948C102.586 3.30636 102.551 3.28902 102.515 3.28902H102.527ZM26.1124 13.5491H79.0533C79.8054 13.5491 80.4165 13.8381 80.8866 14.3006L80.8925 14.3064C81.3214 14.7283 81.5976 15.2775 81.7386 15.8439L82.5671 19.0694C84.3181 25.8902 85.1994 29.3064 85.1994 32.8439C85.1994 36.3815 84.3239 39.7977 82.5671 46.6185L81.7386 49.8439C81.5976 50.4046 81.3214 50.9595 80.8866 51.3815C80.4165 51.8497 79.8113 52.1387 79.0475 52.1387H26.1065C25.3485 52.1387 24.7257 51.8497 24.2497 51.3757C23.8149 50.9422 23.5329 50.3642 23.4095 49.763C23.0981 48.2428 22.6926 46.3468 22.3342 44.6647C19.6783 32.1965 19.5138 31.422 23.4212 15.8555C23.5623 15.2832 23.8384 14.7225 24.2674 14.3064C24.7374 13.8439 25.3485 13.5549 26.1065 13.5549L26.1124 13.5491ZM50.4676 16.8324V48.8555H78.5598L79.3354 45.8208C81.0159 39.2659 81.862 35.9942 81.862 32.8439C81.862 29.6936 81.0217 26.4162 79.3354 19.8671L78.5598 16.8324H50.4676ZM47.1301 48.8555V16.8324H26.6118C22.9335 31.4855 23.0981 32.2659 25.6012 43.9942C25.8773 45.2775 26.177 46.6936 26.6235 48.8497H47.136L47.1301 48.8555ZM35.449 25.9595C37.5055 25.9595 39.3682 26.7803 40.7137 28.104C42.0593 29.4335 42.8937 31.2659 42.8937 33.2832C42.8937 35.2948 42.0593 37.1272 40.7137 38.4566C39.3564 39.7861 37.4938 40.6069 35.449 40.6069C33.3983 40.6069 31.5416 39.7861 30.1902 38.4566C28.8387 37.1387 28.0044 35.3006 28.0044 33.2832C28.0044 31.2601 28.8387 29.4335 30.1843 28.104C31.5298 26.7803 33.3925 25.9595 35.449 25.9595ZM38.4633 30.3179C37.6936 29.5607 36.6242 29.0925 35.449 29.0925C34.2738 29.0925 33.2103 29.5607 32.4406 30.3179C31.6709 31.0751 31.1949 32.1214 31.1949 33.2775C31.1949 34.4335 31.6709 35.4855 32.4406 36.2428C33.2044 37 34.268 37.4682 35.449 37.4682C36.63 37.4682 37.6936 37 38.4633 36.2486C39.233 35.4913 39.709 34.4393 39.709 33.2775C39.709 32.1156 39.233 31.0694 38.4633 30.3179ZM74.3116 38.0751C75.1166 38.0751 75.851 38.3988 76.3798 38.9191C76.9087 39.4393 77.2377 40.1618 77.2377 40.9538C77.2377 41.7457 76.9087 42.4624 76.3798 42.9884C75.8451 43.5145 75.1166 43.8324 74.3116 43.8324C73.5066 43.8324 72.778 43.5087 72.2433 42.9884C71.7145 42.4682 71.3854 41.7514 71.3854 40.9538C71.3854 40.1618 71.7145 39.4393 72.2433 38.9191C72.7721 38.3988 73.5007 38.0751 74.3116 38.0751ZM75.4985 39.7861C75.1929 39.4913 74.7758 39.3064 74.3116 39.3064C73.8474 39.3064 73.4302 39.4913 73.1305 39.7861C72.8309 40.0809 72.6428 40.4971 72.6428 40.948C72.6428 41.4046 72.8309 41.815 73.1305 42.1098C73.4302 42.4104 73.8474 42.5896 74.3116 42.5896C74.7758 42.5896 75.1929 42.4046 75.4926 42.1098C75.7981 41.8092 75.9803 41.3988 75.9803 40.9422C75.9803 40.4855 75.7923 40.0751 75.4926 39.7803L75.4985 39.7861ZM65.7505 38.0751C66.5555 38.0751 67.29 38.3988 67.8188 38.9191C68.3476 39.4393 68.6767 40.1618 68.6767 40.9538C68.6767 41.7457 68.3476 42.4624 67.8188 42.9884C67.2841 43.5145 66.5555 43.8324 65.7505 43.8324C64.9455 43.8324 64.2169 43.5087 63.6822 42.9884C63.1534 42.4682 62.8244 41.7514 62.8244 40.9538C62.8244 40.1618 63.1534 39.4393 63.6822 38.9191C64.2111 38.3988 64.9397 38.0751 65.7505 38.0751ZM66.9374 39.7861C66.6319 39.4913 66.2147 39.3064 65.7505 39.3064C65.2863 39.3064 64.8692 39.4913 64.5695 39.7861C64.2698 40.0809 64.0818 40.4971 64.0818 40.948C64.0818 41.4046 64.2698 41.815 64.5695 42.1098C64.8692 42.4104 65.2863 42.5896 65.7505 42.5896C66.2147 42.5896 66.6319 42.4046 66.9316 42.1098C67.2371 41.8092 67.4193 41.3988 67.4193 40.9422C67.4193 40.4855 67.2312 40.0751 66.9316 39.7803L66.9374 39.7861ZM57.1895 38.0751C57.9945 38.0751 58.7289 38.3988 59.2578 38.9191C59.7866 39.4393 60.1156 40.1618 60.1156 40.9538C60.1156 41.7457 59.7866 42.4624 59.2578 42.9884C58.7231 43.5145 57.9945 43.8324 57.1895 43.8324C56.3845 43.8324 55.6559 43.5087 55.1212 42.9884C54.5924 42.4682 54.2633 41.7514 54.2633 40.9538C54.2633 40.1618 54.5924 39.4393 55.1212 38.9191C55.65 38.3988 56.3786 38.0751 57.1895 38.0751ZM58.3764 39.7861C58.0708 39.4913 57.6537 39.3064 57.1895 39.3064C56.7253 39.3064 56.3081 39.4913 56.0084 39.7861C55.7088 40.0809 55.5207 40.4971 55.5207 40.948C55.5207 41.4046 55.7088 41.815 56.0084 42.1098C56.3081 42.4104 56.7253 42.5896 57.1895 42.5896C57.6537 42.5896 58.0708 42.4046 58.3705 42.1098C58.6761 41.8092 58.8582 41.3988 58.8582 40.9422C58.8582 40.4855 58.6702 40.0751 58.3705 39.7803L58.3764 39.7861ZM74.3174 29.9595C75.1224 29.9595 75.8569 30.2832 76.3857 30.8035C76.9145 31.3237 77.2436 32.0462 77.2436 32.8382C77.2436 33.6301 76.9145 34.3468 76.3857 34.8728C75.851 35.3988 75.1224 35.7168 74.3174 35.7168C73.5125 35.7168 72.7839 35.3931 72.2492 34.8728C71.7203 34.3526 71.3913 33.6358 71.3913 32.8382C71.3913 32.0462 71.7203 31.3237 72.2492 30.8035C72.778 30.2832 73.5066 29.9595 74.3174 29.9595ZM75.5044 31.6705C75.1988 31.3757 74.7816 31.1907 74.3174 31.1907C73.8533 31.1907 73.4361 31.3757 73.1364 31.6705C72.8367 31.9653 72.6487 32.3815 72.6487 32.8324C72.6487 33.289 72.8367 33.6994 73.1364 33.9942C73.4361 34.2948 73.8533 34.474 74.3174 34.474C74.7816 34.474 75.1988 34.289 75.4985 33.9942C75.804 33.6936 75.9862 33.2832 75.9862 32.8266C75.9862 32.3699 75.7981 31.9595 75.4985 31.6647L75.5044 31.6705ZM65.7564 29.9595C66.5614 29.9595 67.2959 30.2832 67.8247 30.8035C68.3535 31.3237 68.6826 32.0462 68.6826 32.8382C68.6826 33.6301 68.3535 34.3468 67.8247 34.8728C67.29 35.3988 66.5614 35.7168 65.7564 35.7168C64.9514 35.7168 64.2228 35.3931 63.6881 34.8728C63.1593 34.3526 62.8302 33.6358 62.8302 32.8382C62.8302 32.0462 63.1593 31.3237 63.6881 30.8035C64.2169 30.2832 64.9455 29.9595 65.7564 29.9595ZM66.9433 31.6705C66.6378 31.3757 66.2206 31.1907 65.7564 31.1907C65.2922 31.1907 64.875 31.3757 64.5754 31.6705C64.2757 31.9653 64.0877 32.3815 64.0877 32.8324C64.0877 33.289 64.2757 33.6994 64.5754 33.9942C64.875 34.2948 65.2922 34.474 65.7564 34.474C66.2206 34.474 66.6378 34.289 66.9374 33.9942C67.243 33.6936 67.4251 33.2832 67.4251 32.8266C67.4251 32.3699 67.2371 31.9595 66.9374 31.6647L66.9433 31.6705ZM57.1954 29.9595C58.0003 29.9595 58.7348 30.2832 59.2636 30.8035C59.7925 31.3237 60.1215 32.0462 60.1215 32.8382C60.1215 33.6301 59.7925 34.3468 59.2636 34.8728C58.7289 35.3988 58.0003 35.7168 57.1954 35.7168C56.3904 35.7168 55.6618 35.3931 55.1271 34.8728C54.5982 34.3526 54.2692 33.6358 54.2692 32.8382C54.2692 32.0462 54.5982 31.3237 55.1271 30.8035C55.6559 30.2832 56.3845 29.9595 57.1954 29.9595ZM58.3823 31.6705C58.0767 31.3757 57.6595 31.1907 57.1954 31.1907C56.7312 31.1907 56.314 31.3757 56.0143 31.6705C55.7147 31.9653 55.5266 32.3815 55.5266 32.8324C55.5266 33.289 55.7147 33.6994 56.0143 33.9942C56.314 34.2948 56.7312 34.474 57.1954 34.474C57.6595 34.474 58.0767 34.289 58.3764 33.9942C58.6819 33.6936 58.8641 33.2832 58.8641 32.8266C58.8641 32.3699 58.6761 31.9595 58.3764 31.6647L58.3823 31.6705ZM74.1059 21.8439C74.9109 21.8439 75.6454 22.1676 76.1742 22.6879C76.703 23.2081 77.0321 23.9306 77.0321 24.7225C77.0321 25.5145 76.703 26.2312 76.1742 26.7572C75.6395 27.2832 74.9109 27.6012 74.1059 27.6012C73.3009 27.6012 72.5723 27.2775 72.0376 26.7572C71.5088 26.237 71.1798 25.5202 71.1798 24.7225C71.1798 23.9306 71.5088 23.2081 72.0376 22.6879C72.5665 22.1676 73.2951 21.8439 74.1059 21.8439ZM75.2928 23.5549C74.9873 23.2601 74.5701 23.0751 74.1059 23.0751C73.6417 23.0751 73.2245 23.2601 72.9249 23.5549C72.6252 23.8497 72.4372 24.2659 72.4372 24.7168C72.4372 25.1734 72.6252 25.5838 72.9249 25.8786C73.2245 26.1792 73.6417 26.3584 74.1059 26.3584C74.5701 26.3584 74.9873 26.1734 75.287 25.8786C75.5925 25.578 75.7746 25.1676 75.7746 24.711C75.7746 24.2543 75.5866 23.8439 75.287 23.5491L75.2928 23.5549ZM65.5449 21.8439C66.3499 21.8439 67.0843 22.1676 67.6132 22.6879C68.142 23.2081 68.471 23.9306 68.471 24.7225C68.471 25.5145 68.142 26.2312 67.6132 26.7572C67.0785 27.2832 66.3499 27.6012 65.5449 27.6012C64.7399 27.6012 64.0113 27.2775 63.4766 26.7572C62.9478 26.237 62.6187 25.5202 62.6187 24.7225C62.6187 23.9306 62.9478 23.2081 63.4766 22.6879C64.0054 22.1676 64.734 21.8439 65.5449 21.8439ZM66.7318 23.5549C66.4262 23.2601 66.0091 23.0751 65.5449 23.0751C65.0807 23.0751 64.6635 23.2601 64.3638 23.5549C64.0642 23.8497 63.8761 24.2659 63.8761 24.7168C63.8761 25.1734 64.0642 25.5838 64.3638 25.8786C64.6635 26.1792 65.0807 26.3584 65.5449 26.3584C66.0091 26.3584 66.4262 26.1734 66.7259 25.8786C67.0314 25.578 67.2136 25.1676 67.2136 24.711C67.2136 24.2543 67.0256 23.8439 66.7259 23.5491L66.7318 23.5549ZM58.1707 23.5549C57.8652 23.2601 57.448 23.0751 56.9838 23.0751C56.5196 23.0751 56.1025 23.2601 55.8028 23.5549C55.5031 23.8497 55.3151 24.2659 55.3151 24.7168C55.3151 25.1734 55.5031 25.5838 55.8028 25.8786C56.1025 26.1792 56.5196 26.3584 56.9838 26.3584C57.448 26.3584 57.8652 26.1734 58.1649 25.8786C58.4704 25.578 58.6526 25.1676 58.6526 24.711C58.6526 24.2543 58.4645 23.8439 58.1649 23.5491L58.1707 23.5549Z" fill="#C3A36F"/>
</g>
<defs>
<clipPath id="clip0">
<rect width="106" height="73" fill="white"/>
</clipPath>
</defs>
</svg>
