<svg width="91" height="67" viewBox="0 0 91 67" fill="none" xmlns="http://www.w3.org/2000/svg">
<g clip-path="url(#clip0)">
<path d="M77.4251 67.0001C76.0724 67.0001 74.9755 65.9143 74.9755 64.5752C74.9755 63.2362 76.0724 62.1503 77.4251 62.1503C82.2116 62.1503 86.1007 58.2963 86.1007 53.5623C86.1007 52.2233 87.1976 51.1375 88.5503 51.1375C89.903 51.1375 90.9999 52.2233 90.9999 53.5623C90.9999 60.9701 84.9127 66.9958 77.4251 66.9958V67.0001Z" fill="#C3A36F"/>
<path d="M13.5704 67.0002C6.08719 67.0002 0 60.9745 0 53.5667C0 52.2277 1.09691 51.1418 2.44962 51.1418C3.80232 51.1418 4.89923 52.2277 4.89923 53.5667C4.89923 58.3006 8.78827 62.1547 13.5748 62.1547C14.9275 62.1547 16.0244 63.2406 16.0244 64.5796C16.0244 65.9187 14.9275 67.0045 13.5748 67.0045L13.5704 67.0002Z" fill="#C3A36F"/>
<path d="M2.44962 15.8627C1.09691 15.8627 0 14.7768 0 13.4378C0 6.02575 6.08719 0 13.5704 0C14.9231 0 16.0201 1.08584 16.0201 2.4206C16.0201 3.75966 14.9231 4.84549 13.5704 4.84549C8.78827 4.84549 4.8949 8.69957 4.8949 13.4378C4.8949 14.7768 3.79799 15.8627 2.44528 15.8627H2.44962Z" fill="#C3A36F"/>
<path d="M88.5503 15.8627C87.1976 15.8627 86.1007 14.7768 86.1007 13.4378C86.1007 8.69957 82.2073 4.84549 77.4251 4.84549C76.0724 4.84549 74.9755 3.75966 74.9755 2.4206C74.9755 1.08155 76.0724 0 77.4251 0C84.9084 0 90.9999 6.02575 90.9999 13.4378C90.9999 14.7768 89.903 15.8627 88.5503 15.8627Z" fill="#C3A36F"/>
<path d="M88.5503 55.991C87.1976 55.991 86.1007 54.9052 86.1007 53.5661V13.4373C86.1007 12.0983 87.1976 11.0125 88.5503 11.0125C89.903 11.0125 90.9999 12.0983 90.9999 13.4373V53.5661C90.9999 54.9052 89.903 55.991 88.5503 55.991Z" fill="#C3A36F"/>
<path d="M77.4251 66.9997H13.5703C12.2176 66.9997 11.1207 65.9139 11.1207 64.5748C11.1207 63.2357 12.2176 62.1499 13.5703 62.1499H77.4251C78.7778 62.1499 79.8747 63.2357 79.8747 64.5748C79.8747 65.9139 78.7778 66.9997 77.4251 66.9997Z" fill="#C3A36F"/>
<path d="M2.44962 55.991C1.09691 55.991 0 54.9052 0 53.5661V13.4373C0 12.0983 1.09691 11.0125 2.44962 11.0125C3.80232 11.0125 4.89923 12.0983 4.89923 13.4373V53.5661C4.89923 54.9052 3.80232 55.991 2.44962 55.991Z" fill="#C3A36F"/>
<path d="M77.4251 4.84549H13.5703C12.2176 4.84549 11.1207 3.75966 11.1207 2.4206C11.1207 1.08154 12.2176 0 13.5703 0H77.4251C78.7778 0 79.8747 1.08584 79.8747 2.4206C79.8747 3.75966 78.7778 4.84549 77.4251 4.84549Z" fill="#C3A36F"/>
<path d="M88.5503 18.519H2.4496C1.77325 18.519 1.22696 17.9782 1.22696 17.3087C1.22696 16.6392 1.77325 16.0984 2.4496 16.0984H88.5503C89.2267 16.0984 89.773 16.6392 89.773 17.3087C89.773 17.9782 89.2267 18.519 88.5503 18.519Z" fill="#C3A36F"/>
<path d="M88.5503 28.5366H2.4496C1.77325 28.5366 1.22696 27.9958 1.22696 27.3263C1.22696 26.6567 1.77325 26.116 2.4496 26.116H88.5503C89.2267 26.116 89.773 26.6567 89.773 27.3263C89.773 27.9958 89.2267 28.5366 88.5503 28.5366Z" fill="#C3A36F"/>
<path d="M23.9541 34.7123H10.0412C9.3648 34.7123 8.81851 34.1716 8.81851 33.502C8.81851 32.8325 9.3648 32.2917 10.0412 32.2917H23.9541C24.6305 32.2917 25.1767 32.8325 25.1767 33.502C25.1767 34.1716 24.6305 34.7123 23.9541 34.7123Z" fill="#C3A36F"/>
</g>
<defs>
<clipPath id="clip0">
<rect width="91" height="67" fill="white"/>
</clipPath>
</defs>
</svg>
