<svg width="81" height="81" viewBox="0 0 81 81" fill="none" xmlns="http://www.w3.org/2000/svg">
<path d="M78.5297 81.0006H2.4703C1.11814 81.0006 0 79.9085 0 78.5303V2.47032C0 1.11815 1.09213 0 2.4703 0H78.5297C79.8819 0 81 1.09214 81 2.47032V78.5303C81 79.8825 79.9079 81.0006 78.5297 81.0006ZM4.91461 76.086H76.0594V4.94065H4.91461V76.086Z" fill="#C3A36F"/>
<path d="M40.4872 79.5187C39.135 79.5187 38.0168 78.4265 38.0168 77.0483V4.21276C38.0168 2.86058 39.109 1.74243 40.4872 1.74243C41.8393 1.74243 42.9575 2.83458 42.9575 4.21276V77.0483C42.9575 78.4005 41.8653 79.5187 40.4872 79.5187Z" fill="#C3A36F"/>
<path d="M77.3599 42.9577H3.95285C2.60068 42.9577 1.48254 41.8656 1.48254 40.4874C1.48254 39.1352 2.57468 38.0171 3.95285 38.0171H77.3599C78.7121 38.0171 79.8302 39.1092 79.8302 40.4874C79.8302 41.8396 78.7381 42.9577 77.3599 42.9577Z" fill="#C3A36F"/>
<path d="M21.4787 28.318C20.8027 28.318 20.2566 27.772 20.2566 27.0959V14.7183C20.2566 14.0422 20.8027 13.4961 21.4787 13.4961C22.1548 13.4961 22.7009 14.0422 22.7009 14.7183V27.0959C22.7009 27.772 22.1548 28.318 21.4787 28.318Z" fill="#C3A36F"/>
<path d="M27.6677 22.1289H15.2901C14.6141 22.1289 14.068 21.5828 14.068 20.9067C14.068 20.2306 14.6141 19.6846 15.2901 19.6846H27.6677C28.3438 19.6846 28.8898 20.2306 28.8898 20.9067C28.8898 21.5828 28.3438 22.1289 27.6677 22.1289Z" fill="#C3A36F"/>
<path d="M17.1106 65.2691C16.7986 65.2691 16.4866 65.139 16.2525 64.905C15.7845 64.4369 15.7845 63.6568 16.2525 63.1628L25.0156 54.3996C25.4837 53.9316 26.2638 53.9316 26.7578 54.3996C27.2259 54.8677 27.2259 55.6478 26.7578 56.1419L17.9947 64.905C17.7607 65.139 17.4487 65.2691 17.1366 65.2691H17.1106Z" fill="#C3A36F"/>
<path d="M25.8478 65.2691C25.5358 65.2691 25.2238 65.139 24.9897 64.905L16.2267 56.1419C15.7586 55.6738 15.7586 54.8937 16.2267 54.3996C16.6947 53.9316 17.4748 53.9316 17.9689 54.3996L26.732 63.1628C27.2 63.6308 27.2 64.4109 26.732 64.905C26.4979 65.139 26.1859 65.2691 25.8738 65.2691H25.8478Z" fill="#C3A36F"/>
<path d="M65.8404 22.1289H53.4629C52.7868 22.1289 52.2407 21.5828 52.2407 20.9067C52.2407 20.2306 52.7868 19.6846 53.4629 19.6846H65.8404C66.5165 19.6846 67.0626 20.2306 67.0626 20.9067C67.0626 21.5828 66.5165 22.1289 65.8404 22.1289Z" fill="#C3A36F"/>
<path d="M65.8664 62.9541H53.4889C52.8128 62.9541 52.2667 62.408 52.2667 61.7319C52.2667 61.0558 52.8128 60.5098 53.4889 60.5098H65.8664C66.5425 60.5098 67.0886 61.0558 67.0886 61.7319C67.0886 62.408 66.5425 62.9541 65.8664 62.9541Z" fill="#C3A36F"/>
<path d="M65.8404 58.8193H53.4629C52.7868 58.8193 52.2407 58.2732 52.2407 57.5972C52.2407 56.9211 52.7868 56.375 53.4629 56.375H65.8404C66.5165 56.375 67.0626 56.9211 67.0626 57.5972C67.0626 58.2732 66.5165 58.8193 65.8404 58.8193Z" fill="#C3A36F"/>
</svg>
